<svg xmlns="http://www.w3.org/2000/svg" data-name="Layer 1" viewBox="0 0 75 45" width="75" height="45"><path class="cls-3" d="M.001 0h75v45h-75z" fill="#f0f0f0"/><path class="cls-6" d="M42.188 26.718H75v-8.437H42.188V0h-9.375v18.281H.001v8.437h32.812v18.281h9.375z" fill="#d80027"/><path class="cls-7" d="M75 30.325H57.684L75 38.984zm-29.348 0L75 44.999V40.85L53.952 30.325zm0 14.674h21.531L45.652 34.233z" fill="#0052b4"/><path class="cls-3" d="M45.652 30.325 75 44.999V40.85L53.952 30.325z" fill="#f0f0f0"/><path class="cls-6" d="M45.652 30.325 75 44.999V40.85L53.952 30.325z" fill="#d80027"/><path class="cls-7" d="M.001 30.325h13.233L.001 36.942zm3.734 14.674 25.613-12.808v12.808z" fill="#0052b4"/><path class="cls-6" d="M29.348 30.325h-8.299L.001 40.85v4.149z" fill="#d80027"/><path class="cls-7" d="M.001 14.673h17.316L.001 6.015zm29.347 0L.001 0v4.149l21.048 10.524zm0-14.673H7.818l21.53 10.766z" fill="#0052b4"/><path class="cls-3" d="M29.348 14.673.001 0v4.149l21.048 10.524z" fill="#f0f0f0"/><path class="cls-6" d="M29.348 14.673.001 0v4.149l21.048 10.524z" fill="#d80027"/><path class="cls-7" d="M75 14.674H61.767L75 8.057zM71.266 0 45.652 12.808V0z" fill="#0052b4"/><path class="cls-6" d="M45.652 14.673h8.3L75 4.149V0z" fill="#d80027"/><path class="cls-8" d="M75 2.999 3.001 44.993l-3 .007L0 41.165 71.266-.001 75 0z" opacity=".27"/><path class="cls-3" d="m28.12 28.123-9.37 5.62-9.38 5.63L0 44.993V.003h75l-9.37 5.62-9.37 5.62-9.38 5.63-9.37 5.62h-.01v.01l-2.89 1.73z" fill="#f0f0f0"/><path class="cls-6" d="m65.63 5.623-9.37 5.62H0v-5.62zm-18.75 11.25-9.37 5.62H0v-5.62zm-18.76 11.25-9.37 5.62H0v-5.62zM0 39.373h9.37L0 44.993z" fill="#d80027"/><path d="M0 24.233V.003h37.5v22.5l-2.89 1.73z" fill="#2e52b2"/><path class="cls-3" d="M17.175 11.597h-1.954l-.603-1.672-.604 1.672h-1.953l1.581 1.033-.604 1.672 1.58-1.033 1.58 1.033-.604-1.672zm-1.581 7.068 1.581-1.033h-1.954l-.603-1.673-.604 1.673h-1.953l1.581 1.033-.604 1.672 1.58-1.033 1.58 1.033zm-8.256 0 1.581-1.033H6.965l-.603-1.673-.604 1.673H3.805l1.581 1.033-.604 1.672 1.58-1.033 1.58 1.033zm1.581-7.068H6.965l-.603-1.672-.604 1.672H3.805l1.581 1.033-.604 1.672 1.58-1.033 1.58 1.033-.604-1.672zm8.256-6.034h-1.954l-.603-1.673-.604 1.673h-1.953l1.581 1.033-.604 1.672 1.58-1.033 1.58 1.033-.604-1.672zm-8.256 0H6.965L6.362 3.89l-.604 1.673H3.805l1.581 1.033-.604 1.672 1.58-1.033 1.58 1.033-.604-1.672zm16.512 6.034h-1.953l-.604-1.672-.603 1.672h-1.954l1.581 1.033-.604 1.672 1.58-1.033 1.58 1.033-.604-1.672zm-1.581 7.068 1.581-1.033h-1.953l-.604-1.673-.603 1.673h-1.954l1.581 1.033-.604 1.672 1.58-1.033 1.58 1.033zm8.257 0 1.58-1.033h-1.953l-.603-1.673-.604 1.673h-1.954l1.581 1.033-.604 1.672 1.581-1.033 1.58 1.033zm1.58-7.068h-1.953l-.603-1.672-.604 1.672h-1.954l1.581 1.033-.604 1.672 1.581-1.033 1.58 1.033-.604-1.672zm-8.256-6.034h-1.953l-.604-1.673-.603 1.673h-1.954l1.581 1.033-.604 1.672 1.58-1.033 1.58 1.033-.604-1.672zm8.256 0h-1.953l-.603-1.673-.604 1.673h-1.954l1.581 1.033-.604 1.672 1.581-1.033 1.58 1.033-.604-1.672z" fill="#f0f0f0"/></svg>